<?xml version="1.0" encoding="UTF-8"?>
<svg xmlns="http://www.w3.org/2000/svg" xmlns:xlink="http://www.w3.org/1999/xlink" viewBox="0 0 150 150" width="150px" height="150px">
<g id="surface54452129">
<path style=" stroke:none;fill-rule:nonzero;fill:rgb(58.431375%,64.705884%,65.098041%);fill-opacity:1;" d="M 133.132812 17.957031 C 131.667969 18.023438 130.246094 18.429688 128.964844 18.945312 C 127.695312 19.453125 120.386719 22.574219 109.59375 27.1875 C 98.800781 31.800781 84.769531 37.8125 70.863281 43.769531 C 43.046875 55.6875 15.714844 67.410156 15.714844 67.410156 L 15.914062 67.335938 C 15.914062 67.335938 14.265625 67.886719 12.589844 69.050781 C 11.753906 69.636719 10.855469 70.386719 10.117188 71.484375 C 9.382812 72.582031 8.84375 74.136719 9.046875 75.777344 C 9.757812 81.554688 15.742188 83.191406 15.742188 83.191406 L 15.765625 83.203125 L 42.472656 92.34375 C 43.15625 94.617188 50.574219 119.378906 52.207031 124.621094 C 53.109375 127.523438 53.953125 129.195312 54.832031 130.335938 C 55.273438 130.90625 55.734375 131.347656 56.242188 131.671875 C 56.445312 131.800781 56.660156 131.898438 56.871094 131.980469 C 56.875 131.984375 56.878906 131.980469 56.882812 131.980469 C 56.910156 131.992188 56.933594 131.996094 56.957031 132.003906 L 56.886719 131.988281 C 56.9375 132.007812 56.984375 132.042969 57.035156 132.058594 C 57.128906 132.09375 57.1875 132.089844 57.308594 132.117188 C 60.371094 133.183594 62.898438 131.203125 62.898438 131.203125 L 63.003906 131.121094 L 79.410156 115.902344 L 106.035156 136.664062 L 106.371094 136.816406 C 111.03125 138.886719 115.246094 137.730469 117.578125 135.832031 C 119.914062 133.933594 120.832031 131.484375 120.832031 131.484375 L 120.929688 131.226562 L 140.496094 29.253906 C 140.996094 26.972656 141.066406 25.003906 140.59375 23.21875 C 140.125 21.4375 138.976562 19.890625 137.535156 19.03125 C 136.097656 18.171875 134.59375 17.894531 133.128906 17.957031 Z M 133.289062 24.058594 C 133.882812 24.03125 134.324219 24.097656 134.460938 24.179688 C 134.597656 24.265625 134.660156 24.253906 134.796875 24.757812 C 134.929688 25.257812 135 26.316406 134.636719 27.972656 L 134.625 28.007812 L 115.171875 129.386719 C 115.125 129.488281 114.71875 130.425781 113.796875 131.179688 C 112.851562 131.949219 111.800781 132.546875 109.015625 131.378906 L 79.898438 108.675781 L 79.078125 108.03125 L 79.058594 108.046875 L 70.355469 101.515625 L 119.285156 43.945312 C 120.054688 43.042969 120.21875 41.773438 119.710938 40.707031 C 119.199219 39.636719 118.109375 38.96875 116.925781 39 C 116.359375 39.015625 115.808594 39.1875 115.335938 39.503906 L 44.53125 86.707031 L 17.785156 77.546875 C 17.785156 77.546875 15.128906 76.070312 15 75.039062 C 14.992188 74.984375 14.960938 75.035156 15.101562 74.828125 C 15.238281 74.625 15.585938 74.277344 16.019531 73.972656 C 16.890625 73.367188 17.882812 73 17.882812 73 L 17.984375 72.964844 L 18.082031 72.925781 C 18.082031 72.925781 45.417969 61.199219 73.230469 49.28125 C 87.136719 43.324219 101.164062 37.320312 111.957031 32.707031 C 122.742188 28.09375 130.539062 24.773438 131.199219 24.507812 C 131.949219 24.207031 132.695312 24.085938 133.289062 24.058594 Z M 100.839844 56.378906 L 63.734375 100.039062 L 63.714844 100.054688 C 63.65625 100.125 63.601562 100.195312 63.550781 100.269531 C 63.492188 100.351562 63.4375 100.4375 63.386719 100.523438 C 63.179688 100.878906 63.042969 101.269531 62.992188 101.675781 C 62.992188 101.683594 62.992188 101.691406 62.992188 101.699219 L 58.160156 123.4375 C 58.078125 123.203125 58.023438 123.117188 57.9375 122.839844 L 57.9375 122.835938 C 56.402344 117.902344 49.402344 94.546875 48.433594 91.316406 Z M 67.921875 107.191406 L 74.589844 112.195312 L 64.792969 121.277344 Z M 67.921875 107.191406 "/>
</g>
</svg>
